Coordinates
version=1
nRows=29
nColumns=22
inDegrees=yes

Units are S.I. units (second, meters, Newtons, ...)
If the header above contains a line with 'inDegrees', this indicates whether rotational values are in degrees (yes) or radians (no).

endheader
time	pelvis_tilt	pelvis_list	pelvis_rotation	pelvis_tx	pelvis_ty	pelvis_tz	hip_flexion_r	hip_adduction_r	hip_rotation_r	knee_angle_r	ankle_angle_r	subtalar_angle_r	hip_flexion_l	hip_adduction_l	hip_rotation_l	knee_angle_l	ankle_angle_l	subtalar_angle_l	lumbar_extension	lumbar_bending	lumbar_rotation
      0.01000000	     -2.30904307	     -7.50772874	      5.60879980	      1.19947378	      0.96390401	     -0.31583515	      5.59418807	      9.57797297	     -4.07172947	    -14.85202578	      9.16299548	      0.34449309	      6.85637822	     -9.02363325	      5.61211462	    -15.77445792	     12.55469141	      0.37611187	      1.55954023	      6.58327111	     -5.79888985
      0.02000000	     -2.27921097	     -7.57655362	      5.62471061	      1.19961802	      0.96385515	     -0.31626539	      5.54271613	      9.63111354	     -4.09670293	    -14.82417066	      9.18526970	      0.37041500	      6.73146277	     -9.08638986	      5.62143359	    -15.61937029	     12.60524195	      0.41763659	      1.58118304	      6.67338242	     -5.87834032
      0.03000000	     -2.25150562	     -7.64506039	      5.63261704	      1.19975719	      0.96380482	     -0.31678487	      5.48270634	      9.67946502	     -4.10651467	    -14.77814699	      9.17917948	      0.38225491	      6.58279520	     -9.15164387	      5.57602102	    -15.41995421	     12.65036242	      0.43867907	      1.60952208	      6.76757815	     -5.96758921
      0.04000000	     -2.20028952	     -7.68896650	      5.65206247	      1.19985235	      0.96379554	     -0.31742599	      5.39031880	      9.69761889	     -4.10410957	    -14.72025797	      9.16404825	      0.38939958	      6.38325906	     -9.19433221	      5.47167334	    -15.16712087	     12.67739523	      0.45508162	      1.60488653	      6.84213633	     -6.08460292
      0.05000000	     -2.24921447	     -7.71702782	      5.67477036	      1.19982216	      0.96366306	     -0.31819337	      5.42676825	      9.67465631	     -4.13905874	    -14.69415455	      9.18419374	      0.38851443	      6.29047677	     -9.20560958	      5.32412506	    -14.89488408	     12.70379740	      0.45758772	      1.70418897	      6.89768980	     -6.21409245
      0.06000000	     -2.28478114	     -7.70866659	      5.69769511	      1.19974713	      0.96361298	     -0.31906081	      5.45032353	      9.60591561	     -4.17589177	    -14.67364604	      9.19117859	      0.40340334	      6.11327727	     -9.18140244	      5.15123886	    -14.49551864	     12.62244222	      0.48335662	      1.77854813	      6.91978060	     -6.29949060
      0.07000000	     -2.30193113	     -7.63009771	      5.71393482	      1.19963724	      0.96362122	     -0.32004597	      5.44159523	      9.45733616	     -4.17051386	    -14.64873015	      9.23232414	      0.45080470	      5.89700182	     -9.08118273	      4.88249333	    -14.07340487	     12.54986261	      0.51337625	      1.81792182	      6.87784023	     -6.40762801
      0.08000000	     -2.37000348	     -7.58640733	      5.74338149	      1.19945630	      0.96359366	     -0.32106534	      5.50042862	      9.33431802	     -4.21848626	    -14.62552371	      9.23064937	      0.48605610	      5.75154577	     -9.00798588	      4.64182321	    -13.65456406	     12.43517451	      0.54352756	      1.91411586	      6.87040240	     -6.49510058
      0.09000000	     -2.42260619	     -7.49923828	      5.75518993	      1.19929961	      0.96360756	     -0.32208471	      5.53327905	      9.16896218	     -4.22154081	    -14.60258195	      9.25597008	      0.53336181	      5.58983666	     -8.88341072	      4.40458639	    -13.25902800	     12.31651087	      0.57393301	      1.98641600	      6.81643441	     -6.56568662
      0.10000000	     -2.45329632	     -7.42660230	      5.75461512	      1.19920127	      0.96365066	     -0.32304297	      5.53440511	      9.02781707	     -4.20338402	    -14.56914874	      9.27685561	      0.58697541	      5.43194889	     -8.77187666	      4.21005508	    -12.92605319	     12.21837002	      0.59306536	      2.03853082	      6.77607840	     -6.61315923
      0.11000000	     -2.43409983	     -7.36646793	      5.73780552	      1.19918580	      0.96374667	     -0.32391513	      5.46907044	      8.91425180	     -4.15576909	    -14.51939461	      9.30997624	      0.66576928	      5.25087316	     -8.67648833	      4.04533965	    -12.66640336	     12.16544165	      0.58345369	      2.03868917	      6.74858884	     -6.64190902
      0.12000000	     -2.43644650	     -7.34712944	      5.72466052	      1.19923888	      0.96381641	     -0.32470429	      5.41969439	      8.84824189	     -4.13016874	    -14.45121377	      9.29730394	      0.70811753	      5.12592424	     -8.61921911	      3.96783449	    -12.46741872	     12.10487079	      0.56016589	      2.07828703	      6.75297768	     -6.65977587
      0.13000000	     -2.46252193	     -7.35938915	      5.70753027	      1.19930113	      0.96384771	     -0.32540272	      5.40792613	      8.81996750	     -4.11254090	    -14.39681162	      9.26814146	      0.71848750	      5.05295018	     -8.59285612	      3.94641575	    -12.31441538	     12.07590682	      0.54896522	      2.14551868	      6.78049970	     -6.67738819
      0.14000000	     -2.48201925	     -7.37578846	      5.68112240	      1.19940666	      0.96389067	     -0.32603473	      5.38200326	      8.80170366	     -4.09153121	    -14.33317344	      9.23928735	      0.72410014	      4.97340130	     -8.57424666	      3.92696512	    -12.17031166	     12.05063817	      0.52683846	      2.20507303	      6.80698175	     -6.68407567
      0.15000000	     -2.50319486	     -7.40395752	      5.64365592	      1.19955789	      0.96393092	     -0.32659132	      5.35524280	      8.80096239	     -4.07418154	    -14.26788647	      9.20296697	      0.72468134	      4.88834061	     -8.57289813	      3.90817553	    -12.02213094	     12.02790557	      0.49667482	      2.27193051	      6.83863270	     -6.68102949
      0.16000000	     -2.53822141	     -7.43838974	      5.60496234	      1.19967661	      0.96395076	     -0.32711204	      5.34730621	      8.80704362	     -4.06443523	    -14.20395707	      9.16617617	      0.72098229	      4.81418947	     -8.57948158	      3.88111433	    -11.85974975	     12.01067756	      0.47137361	      2.34547396	      6.87322669	     -6.67674348
      0.17000000	     -2.58128933	     -7.47469794	      5.55949829	      1.19978463	      0.96395823	     -0.32759776	      5.34856140	      8.81648590	     -4.04990172	    -14.13994540	      9.12469164	      0.71351192	      4.73643348	     -8.59075880	      3.84349021	    -11.67666631	     11.98729654	      0.44642094	      2.42497890	      6.90699255	     -6.66709375
      0.18000000	     -2.62606219	     -7.50772258	      5.50419674	      1.19985004	      0.96395732	     -0.32805457	      5.35238261	      8.82387940	     -4.02483722	    -14.07360573	      9.08289668	      0.70058770	      4.64953957	     -8.60126348	      3.79059870	    -11.47256539	     11.95749003	      0.41549859	      2.49501861	      6.93695304	     -6.64996951
      0.19000000	     -2.66724914	     -7.53588145	      5.44969971	      1.19990128	      0.96395016	     -0.32851827	      5.35691359	      8.82567058	     -3.99424151	    -14.01685776	      9.04686051	      0.68738299	      4.55124610	     -8.60647813	      3.73277578	    -11.25509014	     11.92641940	      0.38495282	      2.55912669	      6.96512235	     -6.62928913
      0.20000000	     -2.66125684	     -7.54214214	      5.36619221	      1.19998275	      0.96400047	     -0.32893818	      5.29032540	      8.81463627	     -3.91583897	    -13.93235346	      9.01592245	      0.65702101	      4.37804685	     -8.59749436	      3.61892770	    -11.01430910	     11.87893644	      0.29363028	      2.56088197	      6.97462113	     -6.58429198
      0.21000000	     -2.69380207	     -7.57000442	      5.30831338	      1.20000241	      0.96397681	     -0.32938431	      5.30027403	      8.81499465	     -3.89897063	    -13.89698300	      8.99434465	      0.65485373	      4.26007894	     -8.60302262	      3.58910465	    -10.77990784	     11.85166614	      0.26962041	      2.60678253	      7.00535602	     -6.57249267
      0.22000000	     -2.65627200	     -7.56441596	      5.22403519	      1.20012462	      0.96405511	     -0.32981692	      5.20281908	      8.79180908	     -3.80555523	    -13.82621974	      8.97299489	      0.65883624	      4.02940025	     -8.58355361	      3.47311447	    -10.50703965	     11.79084766	      0.18335950	      2.57617433	      7.01045396	     -6.53508217
      0.23000000	     -2.63786562	     -7.57233931	      5.15580885	      1.20022264	      0.96409697	     -0.33025641	      5.14579870	      8.77722789	     -3.75097157	    -13.78278566	      8.95817810	      0.67455924	      3.82051518	     -8.57526642	      3.39946139	    -10.22577726	     11.73684582	      0.11906274	      2.56759312	      7.02685681	     -6.51877572
      0.24000000	     -2.66496406	     -7.59609298	      5.10283280	      1.20027441	      0.96406829	     -0.33070348	      5.16514105	      8.77089356	     -3.73851782	    -13.77831706	      8.95166040	      0.68400796	      3.67188463	     -8.57876643	      3.35261519	     -9.94993933	     11.70100766	      0.10089991	      2.61051707	      7.05448152	     -6.51483069
      0.25000000	     -2.60768486	     -7.57149882	      5.03305337	      1.20042242	      0.96416698	     -0.33114498	      5.06229212	      8.72622815	     -3.65789041	    -13.73901743	      8.95407146	      0.71929808	      3.38442045	     -8.54183422	      3.21335692	     -9.61287500	     11.62236565	      0.00664483	      2.55760784	      7.03662974	     -6.50085754
      0.26000000	     -2.65011331	     -7.58878639	      5.00537710	      1.20043931	      0.96412386	     -0.33159849	      5.11556405	      8.71128029	     -3.65241466	    -13.75923339	      8.94369999	      0.72889030	      3.24686219	     -8.53902628	      3.15136934	     -9.30894094	     11.55382875	     -0.00186274	      2.61692003	      7.04874660	     -6.53991818
      0.27000000	     -2.64956816	     -7.55456139	      4.96883373	      1.20050549	      0.96414673	     -0.33206712	      5.11366855	      8.64712837	     -3.60291049	    -13.78191768	      8.95313623	      0.74962645	      3.03714908	     -8.48368245	      3.04612933	     -8.97641911	     11.44941024	     -0.05084800	      2.62520575	      7.00910418	     -6.57690800
      0.28000000	     -2.69105454	     -7.56964214	      4.96233703	      1.20055749	      0.96409238	     -0.33252310	      5.17152601	      8.62984675	     -3.62279985	    -13.81349317	      8.95632977	      0.75680377	      2.90831304	     -8.47924411	      2.97518617	     -8.68222125	     11.39044186	     -0.06176716	      2.69231949	      7.01195578	     -6.62512590
      0.29000000	     -2.70171757	     -7.53950038	      4.95778942	      1.20063191	      0.96408749	     -0.33299280	      5.19328642	      8.56878185	     -3.60849379	    -13.85291501	      8.97227708	      0.76967677	      2.75117337	     -8.42577567	      2.91189512	     -8.40689620	     11.29986236	     -0.10177244	      2.72049816	      6.96778046	     -6.68934590
